<?xml version="1.0" standalone="no"?>
<!DOCTYPE svg PUBLIC "-//W3C//DTD SVG 1.1//EN" "http://www.w3.org/Graphics/SVG/1.1/DTD/svg11.dtd">
<svg xmlns="http://www.w3.org/2000/svg" width="500" height="500" viewBox="0 0 500 500"><path fill-rule="evenodd" d="M228.609 77.062C168.394 84.049 113.377 125.569 89.557 182 80.126 204.342 76 224.649 76 248.721c0 30.61 5.896 55.661 19.129 81.279 25.014 48.427 70.818 82.295 124.589 92.126 15.474 2.829 43.782 3.023 58.742.403 24.485-4.288 47.52-13.377 67.402-26.597 14.614-9.717 22.995-16.895 33.791-28.941 42.282-47.183 55.785-110.783 36.337-171.155-4.105-12.742-15.554-35.336-23.733-46.836-8.297-11.665-26.716-30.359-38.66-39.237-22.793-16.942-51.408-28.572-79.398-32.27-11.893-1.571-33.963-1.78-45.59-.431M230 80.028c-19.07 2.303-39.832 8.767-58.192 18.118-41.478 21.122-73.432 59.918-86.246 104.71-22.811 79.737 14.345 163.667 88.938 200.899 33.318 16.629 72.222 21.881 108.5 14.646 53.508-10.671 99.592-46.732 122.556-95.901 15.354-32.877 19.675-70.17 12.34-106.5-13.702-67.857-66.936-120.504-135.517-134.023-12.397-2.443-39.835-3.465-52.379-1.949m1.5 12.599c-24.263 3.641-48.988 12.657-67.647 24.668C134.495 136.193 109.93 168.38 99.207 202c-5.157 16.17-6.342 23.375-6.908 42-.408 13.398-.142 20.163 1.135 28.858 8.68 59.14 50.113 108.716 106.587 127.537 18.628 6.208 29.04 7.837 49.979 7.821 27.262-.02 45.707-4.117 68.5-15.215 14.704-7.159 24.415-13.515 35.638-23.327 48.72-42.594 66.548-107.958 46.277-169.674-14.853-45.224-51.761-82.914-96.915-98.97-18.271-6.497-28.024-8.178-49.5-8.532-10.725-.176-20.85-.118-22.5.129m-1.53 3.406c-18.344 2.555-42.977 11.026-58.087 19.978-37.876 22.439-63.975 58.367-74.023 101.9-2.561 11.097-3.605 38.854-1.94 51.589 4.73 36.173 20.386 67.118 46.866 92.63 22.206 21.395 46.992 34.379 78.214 40.975 15.11 3.192 42.911 3.218 58 .055 52.224-10.948 93.668-44.16 114.212-91.525 21.738-50.12 14.811-109.176-18.02-153.635-10.64-14.409-27.874-30.455-42.692-39.749-13.505-8.471-34.09-16.616-51.384-20.33-10.979-2.358-40.06-3.431-51.146-1.888m-58.448 73.217c-4.041 3.511-4.335 8.483-1.004 16.974 2.518 6.418 2.656 7.371 1.389 9.593-.774 1.357-2.335 3.077-3.469 3.822-1.74 1.143-2.359 1.139-3.953-.027-1.677-1.225-1.758-1.815-.721-5.196.644-2.098.95-4.035.68-4.306-1.039-1.039-3.538 2.691-4.092 6.111-.506 3.114-.226 3.815 2.137 5.364 2.464 1.614 3.097 1.647 6.739.348 2.746-.979 4.662-2.553 6.05-4.969l2.03-3.536-2.654-6.635c-3.543-8.857-3.458-11.939.423-15.204 3.246-2.732 6.926-3.444 6.919-1.339-.002.688-.902 2.723-2 4.524-2.69 4.413-2.512 5.057.596 2.15 4.154-3.885 4.831-5.799 2.833-8.007-2.464-2.723-8.583-2.552-11.903.333m27.301 0c-4.598 8.293-9.707 22.62-10.118 28.375-.322 4.512 2.412 3.524 4.078-1.473l1.449-4.347 1.877 2.847c1.033 1.567 1.881 3.308 1.884 3.87.014 2.044 6.205 8.478 8.158 8.478 1.965 0 9.849-7.27 9.849-9.082 0-1.433-2.623-1.078-3.964.538-.664.801-.932 1.904-.594 2.45s-.25 1.456-1.307 2.022c-2.352 1.259-5.91-1.255-10.243-7.235-3.393-4.685-3.509-5.362-1.051-6.143 2.351-.746 11.522-9.364 13.019-12.234 1.617-3.099 1.412-7.846-.405-9.353-1.304-1.082-2.13-.71-5.31 2.395-2.07 2.022-4.863 5.457-6.205 7.632-1.342 2.176-2.784 3.968-3.203 3.983-.874.031 1.651-6.38 3.814-9.688 1.656-2.532 1.908-5.285.484-5.285-.53 0-1.526 1.012-2.212 2.25m31.288.31c-4.391 3.695-4.843 7.762-1.692 15.248 3.032 7.202 3.224 10.216.831 13.025-1.667 1.956-3.223 2.549-6 2.285-1.517-.143-1.657-5.488-.215-8.184 1.459-2.725-.53-2.493-2.478.289-.856 1.222-1.557 3.708-1.557 5.524 0 2.65.522 3.501 2.644 4.308 5.282 2.008 13.363-3.1 13.351-8.44-.002-1.163-1.116-4.815-2.476-8.115-3.208-7.788-3.141-10.032.404-13.577 4.993-4.993 9.704-2.779 5.609 2.636-2.814 3.72-1.504 5.003 1.509 1.479 3.43-4.014 3.754-6.542 1.025-8.003-3.342-1.788-7.746-1.175-10.955 1.525m38.928.399c-3.518 3.765-8.645 14.114-9.598 19.371-.815 4.498.974 8.67 3.718 8.67 1.097 0 3.271-2.184 5.472-5.5 2.009-3.025 3.701-5.501 3.761-5.502.059-.001.108 3.21.108 7.136 0 5.815.336 7.344 1.813 8.252 1.454.894 2.146.719 3.5-.886.928-1.1 2.54-2 3.582-2 1.4 0 2.257-1.241 3.28-4.75.981-3.361 1.904-4.75 3.159-4.75.976 0 3.865-1.326 6.421-2.947 7.712-4.891 12.546-14.291 9.478-18.43-2.005-2.704-4.796-.905-10.374 6.687-2.501 3.404-4.768 6.415-5.037 6.69-.589.602 3.379-9.573 4.686-12.015.888-1.66.423-2.985-1.048-2.985-1.24 0-6.88 12.811-9.659 21.938-2.452 8.055-5.326 12.37-7.075 10.622-1.057-1.058 1.563-14.556 3.641-18.756 1.975-3.991 2.009-5.804.109-5.804-.498 0-3.153 3.505-5.901 7.789s-6.203 8.896-7.677 10.25l-2.68 2.461.621-4.744c.719-5.491 4.732-14.036 8.456-18.006 2.832-3.02 5.205-3.589 5.205-1.25 0 1.627 1.552 2.034 2.417.634.684-1.107-2.239-3.691-5.195-4.592-1.769-.539-2.926 0-5.183 2.417m59.784-.709c-4.598 8.293-9.707 22.62-10.118 28.375-.322 4.512 2.412 3.524 4.078-1.473l1.449-4.347 1.877 2.847c1.033 1.567 1.881 3.308 1.884 3.87.013 1.878 6.129 8.478 7.857 8.478.938 0 2.705-.701 3.927-1.557 2.763-1.935 3.028-3.944.33-2.5-2.321 1.242-5.906-1.303-10.215-7.25-3.393-4.685-3.509-5.362-1.051-6.143 2.351-.746 11.522-9.364 13.019-12.234 1.617-3.099 1.412-7.846-.405-9.353-1.304-1.082-2.13-.71-5.31 2.395-2.07 2.022-4.863 5.457-6.205 7.632-1.342 2.176-2.784 3.968-3.203 3.983-.874.031 1.651-6.38 3.814-9.688 1.656-2.532 1.908-5.285.484-5.285-.53 0-1.526 1.012-2.212 2.25m-82.855 6.5c-1.816 4.262-3.947 8.283-4.735 8.933s-1.139 1.66-.779 2.242c.359.582-.13 3.543-1.087 6.58-1.329 4.216-1.464 5.798-.57 6.692 1.6 1.6 2.032.957 3.903-5.819.893-3.233 2.055-6.44 2.584-7.128.845-1.1 6.716-1.859 6.716-.869 0 .209-1.125 3.37-2.5 7.023s-2.5 7.569-2.5 8.702c0 3.74 2.388 1.37 4.715-4.678 1.254-3.261 3.113-7.728 4.131-9.928 6.126-13.241 7.342-16.386 6.724-17.386-1.52-2.46-3.208-.772-5.977 5.981-3.062 7.465-3.873 8.253-7.956 7.73l-2.532-.325 2.919-6.5c3.281-7.304 3.585-9 1.611-9-.752 0-2.848 3.481-4.667 7.75m64.379-5.5c-.256.412-1.338.75-2.406.75s-1.941.675-1.941 1.5.723 1.5 1.607 1.5c.964 0 1.393.558 1.071 1.396-.294.768-1.108 3.309-1.809 5.646-.766 2.559-1.998 4.44-3.092 4.727-1.279.334-1.525.83-.829 1.668.671.809.311 3.181-1.116 7.361-1.715 5.023-1.872 6.449-.846 7.685 1.987 2.395 5.641 1.783 9.479-1.587 4.874-4.279 4.425-5.253-1.017-2.211-2.504 1.399-4.8 2.296-5.103 1.993s.428-3.49 1.623-7.082c2.062-6.195 2.363-6.566 5.853-7.192 5.875-1.055 7.372-2.547 1.801-1.796-2.817.38-4.718.273-4.5-.253.208-.501 1.254-3.261 2.326-6.133 1.169-3.135 2.568-5.246 3.5-5.283.853-.034 4.027-.851 7.052-1.815l5.5-1.754-8.344.065c-4.589.036-8.553.403-8.809.815m-107.107 6c-4.712 6.179-7.7 11.75-6.3 11.75 3.277 0 12.06-11.259 12.06-15.46 0-2.731-1.668-1.657-5.76 3.71m91.723-.084c-4.13 5.225-7.402 10.728-6.76 11.37.847.848 6.783-3.912 9.113-7.308 2.951-4.301 4.454-9.228 2.816-9.228-.597 0-2.923 2.325-5.169 5.166m38.277.084c-4.712 6.179-7.7 11.75-6.3 11.75 3.277 0 12.06-11.259 12.06-15.46 0-2.731-1.668-1.657-5.76 3.71m-151.275 22.292c-1.916 2.309.267 4.083 2.399 1.951.9-.9 1.636-2.054 1.636-2.564 0-1.477-2.632-1.077-4.035.613m33.535 18.801c-10.921 3.607-18.545 9.537-30.824 23.975-14.626 17.198-22.427 21.964-36.176 22.102-6.312.063-8.722-.344-11.42-1.929-5.854-3.44-6.614-10.785-1.463-14.16 3.04-1.991 5.41-.999 6.596 2.764.523 1.656.618 1.181.306-1.526-.558-4.85-2.489-6.903-6.389-6.792-12.401.353-15.04 17.434-4.504 29.152 7.578 8.429 22.326 14.071 36.781 14.071 8.901 0 27.687-2.803 37.228-5.555 16.688-4.813 38.095-16.805 42.789-23.969l1.658-2.531 2.575 3.06c6.686 7.945 28.85 20.053 43.843 23.95 9.263 2.408 28.129 5.045 36.093 5.045 12.579 0 26.393-4.536 33.908-11.135 11.364-9.978 12.54-26.258 2.231-30.874-2.156-.965-4.791-1.527-5.857-1.248-2.574.673-4.879 4.101-4.86 7.23l.014 2.527 1.261-2.491c1.637-3.236 4.079-3.64 6.623-1.096 4.422 4.422 3.448 10.754-2.12 13.782-2.397 1.303-5.491 1.789-11.372 1.784-7.324-.005-8.793-.359-15.723-3.784-6.199-3.063-8.926-5.228-14.421-11.444-16.43-18.588-22.532-24.268-30.078-27.997-6.19-3.06-8.609-3.687-15.643-4.056-10.052-.527-16.406 1.27-22.288 6.305l-4.014 3.435-1.876-2.072c-1.031-1.141-3.879-3.247-6.327-4.682-3.763-2.205-5.854-2.652-13.502-2.886-5.557-.17-10.592.233-13.049 1.045m30.077 64.223c-2.346 2.346-6.078 10.003-7.95 16.312-1.843 6.215-4.39 8.828-6.196 6.359-.922-1.261-1.236-.658-1.672 3.208-.508 4.507-2.978 8.67-4.337 7.31-1.215-1.215 2.785-10.814 6.22-14.925 4.174-4.996 6.358-9.022 6.358-11.721 0-5.744-4.115-1.92-9.569 8.891-4.191 8.309-5.56 16.818-3.042 18.908 1.893 1.571 4.33-.894 5.137-5.197.389-2.073 1.475-3.636 3.04-4.374 1.942-.917 2.434-.877 2.434.198 0 1.525 1.841 2.958 2.698 2.1.311-.311.74-2.654.952-5.207.328-3.938 1.061-5.297 4.831-8.961 4.524-4.397 5.948-7.467 5.352-11.537-.427-2.915-2.152-3.468-4.256-1.364m1.73.552c-1.433 1.741-5.307 10.602-5.307 12.139 0 1.748 4.726-3.182 6.002-6.261.639-1.543 1.013-3.823.83-5.066-.28-1.905-.519-2.033-1.525-.812m-51.23 4.471c-3.625 3.05-3.843 5.458-1.077 11.911 1.1 2.566 2 5.459 2 6.428 0 3.464-6.806 7.119-7.118 3.822-.183-1.927-.162-2.084.636-4.75.744-2.489.738-2.491-1.385-.595-4.894 4.371-.36 10.174 5.917 7.574 4.061-1.682 5.655-5.32 4.068-9.284-2.997-7.484-3.314-9.747-1.712-12.192 1.599-2.44 5.258-4.172 6.401-3.03.36.361-.124 2.015-1.077 3.675-1.146 1.997-1.309 2.879-.482 2.606.689-.228 1.905-1.573 2.704-2.989 1.209-2.144 1.23-2.841.127-4.17-1.943-2.341-5.506-1.948-9.002.994m103.328 1.511c-1.048 1.155-2.648 3.967-3.556 6.25-1.391 3.499-2.047 4.107-4.179 3.873-2.083-.228-3.173.695-6.196 5.25-2.018 3.04-4.075 5.527-4.571 5.527-1.179 0-1.16-.14.565-4.27 1.38-3.303 1.35-3.544-.504-4.029-1.384-.362-1.775-1.031-1.309-2.245.467-1.218.247-1.59-.746-1.26-.775.259-1.574 1.332-1.776 2.387-.444 2.321-3.945 7.417-5.096 7.417-.454 0-.435-1.687.044-3.75 1.198-5.155 1.178-5.25-1.081-5.25-1.1 0-2-.45-2-1 0-1.94-2.974-.969-4.592 1.5-2.124 3.241-3.56 3.189-3.196-.115.176-1.597-.364-3.036-1.388-3.698-1.366-.883-2.5-.284-6.149 3.253-4.107 3.98-4.393 4.571-3.477 7.198 1.366 3.919 5.007 3.856 7.96-.138 2.689-3.637 3.842-3.805 3.842-.559 0 1.343.377 2.674.837 2.958 1.072.663 5.163-2.173 5.163-3.578 0-.675-.55-.609-1.5.179-1.233 1.023-1.5.944-1.5-.443 0-2.096 1.792-5.557 2.877-5.557.443 0 .836 2.002.873 4.448.115 7.57 2.683 8.824 6.25 3.052 2.9-4.692 5.454-4.871 3.579-.25-2.352 5.795.228 7.713 4.402 3.271 2.129-2.267 2.434-2.336 3.553-.806 1.144 1.565 1.39 1.565 3.78-.001 2.512-1.646 2.562-1.629 2.871.978.52 4.38 2.435 3.737 6.911-2.322 3.651-4.943 4.346-5.476 4.963-3.808.513 1.383-.074 2.797-2.048 4.938-3.286 3.564-2.921 5.5 1.037 5.5 2.927 0 4.952-2.242 4.952-5.482 0-.888 1.238-2.741 2.75-4.119l2.75-2.505-3.148 1.526c-3.052 1.479-3.167 1.453-3.749-.867-.331-1.317-.328-3.105.005-3.974.956-2.49-1.55-1.84-2.583.671-.508 1.238-2.999 4.5-5.535 7.25l-4.61 5 .629-4c.347-2.2 1.836-5.683 3.311-7.74 4.749-6.627 6.228-9.997 5.024-11.448-1.485-1.79-2.219-1.659-4.439.788m-66.251 4.621c-3.595 7.091-3.973 8.6-1.295 5.164 2.803-3.598 5.314-8.872 4.856-10.203-.223-.65-1.826 1.618-3.561 5.039m65.97.436c-1.179 2.836-2.005 5.296-1.835 5.465.524.524 5.711-7.943 5.711-9.322 0-2.861-1.85-1.02-3.876 3.857m-42.089 3.777c-1.419 2.651-1.297 4.066.348 4.066 1.185 0 2.558-2.769 2.603-5.25.028-1.494-1.94-.704-2.951 1.184m-52.478 1.289c-1.637 2.336-2.159 8.777-.712 8.777.465 0 1.675-.917 2.689-2.038 1.6-1.768 1.958-1.834 2.705-.5 1.174 2.099 3.096 1.93 5.261-.462 2.299-2.54 5.013-2.711 3.978-.25-1.677 3.99-1.695 6.23-.055 6.859 1.693.649 5.577-2.08 5.577-3.919 0-.55-.967-.143-2.15.905-2.145 1.901-2.148 1.899-1.504-.752.355-1.462.921-3.374 1.257-4.25.403-1.05.063-1.593-.996-1.593-.94 0-1.607-.83-1.607-2 0-2.931-1.576-2.439-2.97.928-.667 1.611-1.847 3.172-2.622 3.469-1.673.642-1.696.491-.433-2.832 1.484-3.902-1.173-3.306-4.457 1.001-3.321 4.353-4.164 3.915-2.077-1.08 1.83-4.38 1.845-4.486.616-4.486-.519 0-1.644 1-2.5 2.223m37.617 3.091c-1.196 1.273-2.174 2.731-2.174 3.24s1.143-.307 2.54-1.814 2.778-2.74 3.068-2.74c1.101 0-.978 4.573-2.801 6.16-1.331 1.16-1.557 1.876-.75 2.375.655.405 2.367-.53 3.956-2.16 2.24-2.3 2.626-3.325 1.926-5.125-1.118-2.877-3.021-2.856-5.765.064m47.473 1.3c-.953 1.998-1.467 3.899-1.142 4.224 1.069 1.069 3.988-1.497 4.33-3.805.589-3.989-1.363-4.245-3.188-.419m-36.682.472c-1.457 3.517-.878 4.473 1.832 3.023 2.794-1.495 3.304-3.565 1.202-4.877-1.532-.957-1.985-.68-3.034 1.854m50.599 5.843c-1.037 1.146-1.667 2.301-1.402 2.567.867.867 4.125-2.136 3.7-3.41-.28-.841-1.02-.569-2.298.843m-67.897 9.724c-.092.084-12.092.29-26.667.458-24.24.279-34.416.972-35.889 2.445-.823.822 2.086 2.411 4.448 2.429 1.132.008 2.926.649 3.987 1.425 1.891 1.383 1.892 1.448.036 3.5-1.041 1.149-2.471 2.09-3.178 2.09-2.283 0-2.529 1.875-.51 3.894 3.275 3.275 9.696 2.221 13.809-2.267 3.238-3.533 5.427-4.282 8.769-2.999 1.435.55 1.356.926-.642 3.052-1.928 2.053-2.051 2.569-.804 3.357 2.851 1.803 6.132.972 9.386-2.378l3.244-3.342 12.422 1.306c17.144 1.802 61.439 1.735 75.331-.114 10.109-1.345 20.956-4.125 26.341-6.75 3.427-1.671 2.879-4.554-1-5.261-2.715-.495-88.577-1.31-89.083-.845m-56.167 4.28c1.1.51 4.742.958 8.093.997 13.186.152 30.453 1.424 29.689 2.188-.443.443-5.75.41-11.793-.074s-11.129-.737-11.303-.563c-.526.526 12.815 2.38 20.814 2.892 4.125.264 6.713.255 5.75-.02s-1.75-.981-1.75-1.569q0-1.069 6.147-.426c3.38.353 16.093.688 28.25.744 12.564.059 20.808.437 19.103.877-1.65.425-3.9 1.097-5 1.492-1.367.491-1.587.421-.694-.22.828-.595-6.746-.946-20.726-.96-12.118-.013-21.841.287-21.607.666.234.378 3.125.624 6.424.545 3.738-.088 5.768.231 5.387.848-.367.593.092.72 1.145.316 3.363-1.291 7.144-1.879 5.753-.896-.854.604.907.812 5 .59 7.341-.397 12.534-.395 26.318.013 5.5.163 13.6-.136 18-.663 4.4-.528 8.788-1 9.75-1.049s1.75-.396 1.75-.769c0-.374 1.012-.721 2.25-.771 5.342-.215 6.701-.57 5.763-1.508-.612-.612-1.783-.586-3.236.072-1.252.566-3.156.719-4.23.338-1.617-.573-1.38-.806 1.375-1.357 1.83-.366 4.959-.659 6.953-.651 2.856.012 3.307.245 2.125 1.095-1.248.897-1.192.979.332.484 1.007-.327 2.132-.601 2.5-.609s-.007-.452-.832-.985c-1.906-1.232-13.018-1.225-29 .017-13.377 1.04-35.834 1.29-50.5.561-4.95-.246-18.225-.714-29.5-1.04-11.275-.325-22.75-.803-25.5-1.061-3.545-.333-4.418-.2-3 .456m138.762-.241c.969.253 1.505.875 1.191 1.384s-.121.924.429.924 1.249-.403 1.553-.895c.582-.942-1.776-2.187-3.767-1.989-.642.064-.375.323.594.576m-63.512.97c.688.278 1.813.278 2.5 0 .688-.277.125-.504-1.25-.504s-1.937.227-1.25.504m33.094 2.082c-7.236.244-9.795.685-10.207 1.759-.302.788-.05 1.742.561 2.119.673.416.83.232.397-.467-.781-1.265-.799-1.258 4.763-1.602 3.735-.231 3.783-.194 1.5 1.173-1.416.848-1.626 1.185-.526.843 1.007-.313 2.721-.569 3.809-.569 1.087 0 1.747-.372 1.466-.827s1.297-.793 3.507-.75c2.21.042 5.001-.47 6.202-1.138 2.042-1.135 2.054-1.203.184-1.04-1.1.095-6.345.32-11.656.499"/></svg>